<mxfile host="app.diagrams.net" agent="Mozilla/5.0 (Windows NT 10.0; Win64; x64) AppleWebKit/537.36 (KHTML, like Gecko) Chrome/128.0.0.0 Safari/537.36" version="24.7.7">
  <diagram name="Page-1" id="3fZvi5DwkquwfYsCndSo">
    <mxGraphModel dx="1235" dy="684" grid="1" gridSize="10" guides="1" tooltips="1" connect="1" arrows="1" fold="1" page="1" pageScale="1" pageWidth="850" pageHeight="1100" math="0" shadow="0">
      <root>
        <mxCell id="0" />
        <mxCell id="1" parent="0" />
        <mxCell id="Nv3vTx3vPGKNBrUeAZSQ-3" value="" style="edgeStyle=orthogonalEdgeStyle;rounded=0;orthogonalLoop=1;jettySize=auto;html=1;" edge="1" parent="1" source="Nv3vTx3vPGKNBrUeAZSQ-1" target="Nv3vTx3vPGKNBrUeAZSQ-2">
          <mxGeometry relative="1" as="geometry" />
        </mxCell>
        <mxCell id="Nv3vTx3vPGKNBrUeAZSQ-1" value="&lt;font style=&quot;font-size: 16px;&quot;&gt;Mulai&lt;/font&gt;" style="strokeWidth=2;html=1;shape=mxgraph.flowchart.terminator;whiteSpace=wrap;" vertex="1" parent="1">
          <mxGeometry x="132.5" y="40" width="120" height="50" as="geometry" />
        </mxCell>
        <mxCell id="Nv3vTx3vPGKNBrUeAZSQ-5" value="" style="edgeStyle=orthogonalEdgeStyle;rounded=0;orthogonalLoop=1;jettySize=auto;html=1;" edge="1" parent="1" source="Nv3vTx3vPGKNBrUeAZSQ-2" target="Nv3vTx3vPGKNBrUeAZSQ-4">
          <mxGeometry relative="1" as="geometry" />
        </mxCell>
        <mxCell id="Nv3vTx3vPGKNBrUeAZSQ-7" value="" style="edgeStyle=orthogonalEdgeStyle;rounded=0;orthogonalLoop=1;jettySize=auto;html=1;" edge="1" parent="1" source="Nv3vTx3vPGKNBrUeAZSQ-2">
          <mxGeometry relative="1" as="geometry">
            <mxPoint x="193" y="330" as="targetPoint" />
          </mxGeometry>
        </mxCell>
        <mxCell id="Nv3vTx3vPGKNBrUeAZSQ-2" value="&lt;font style=&quot;font-size: 16px;&quot;&gt;Apakah listrik tersedia?&lt;/font&gt;" style="rhombus;whiteSpace=wrap;html=1;strokeWidth=2;" vertex="1" parent="1">
          <mxGeometry x="130" y="140" width="125" height="130" as="geometry" />
        </mxCell>
        <mxCell id="Nv3vTx3vPGKNBrUeAZSQ-4" value="&lt;font style=&quot;font-size: 16px;&quot;&gt;Nyalakan aliran listrik&lt;/font&gt;" style="whiteSpace=wrap;html=1;strokeWidth=2;" vertex="1" parent="1">
          <mxGeometry x="337.5" y="175" width="120" height="60" as="geometry" />
        </mxCell>
        <mxCell id="Nv3vTx3vPGKNBrUeAZSQ-13" value="" style="edgeStyle=orthogonalEdgeStyle;rounded=0;orthogonalLoop=1;jettySize=auto;html=1;" edge="1" parent="1" source="Nv3vTx3vPGKNBrUeAZSQ-8">
          <mxGeometry relative="1" as="geometry">
            <mxPoint x="195" y="530" as="targetPoint" />
          </mxGeometry>
        </mxCell>
        <mxCell id="Nv3vTx3vPGKNBrUeAZSQ-8" value="&lt;span style=&quot;font-size: 16px;&quot;&gt;Apakah kabel tersambung?&lt;/span&gt;" style="rhombus;whiteSpace=wrap;html=1;strokeWidth=2;" vertex="1" parent="1">
          <mxGeometry x="132.5" y="330" width="125" height="130" as="geometry" />
        </mxCell>
        <mxCell id="Nv3vTx3vPGKNBrUeAZSQ-9" value="" style="endArrow=classic;html=1;rounded=0;exitX=0.5;exitY=1;exitDx=0;exitDy=0;" edge="1" parent="1" source="Nv3vTx3vPGKNBrUeAZSQ-4">
          <mxGeometry width="50" height="50" relative="1" as="geometry">
            <mxPoint x="370" y="410" as="sourcePoint" />
            <mxPoint x="190" y="300" as="targetPoint" />
            <Array as="points">
              <mxPoint x="398" y="300" />
            </Array>
          </mxGeometry>
        </mxCell>
        <mxCell id="Nv3vTx3vPGKNBrUeAZSQ-10" value="" style="edgeStyle=orthogonalEdgeStyle;rounded=0;orthogonalLoop=1;jettySize=auto;html=1;exitX=1;exitY=0.5;exitDx=0;exitDy=0;" edge="1" parent="1" source="Nv3vTx3vPGKNBrUeAZSQ-8">
          <mxGeometry relative="1" as="geometry">
            <mxPoint x="265" y="215" as="sourcePoint" />
            <mxPoint x="340" y="395" as="targetPoint" />
          </mxGeometry>
        </mxCell>
        <mxCell id="Nv3vTx3vPGKNBrUeAZSQ-11" value="&lt;span style=&quot;font-size: 16px;&quot;&gt;Sambungkan kabel daya&lt;/span&gt;" style="whiteSpace=wrap;html=1;strokeWidth=2;" vertex="1" parent="1">
          <mxGeometry x="337.5" y="365" width="120" height="60" as="geometry" />
        </mxCell>
        <mxCell id="Nv3vTx3vPGKNBrUeAZSQ-15" value="" style="edgeStyle=orthogonalEdgeStyle;rounded=0;orthogonalLoop=1;jettySize=auto;html=1;entryX=0.5;entryY=0;entryDx=0;entryDy=0;" edge="1" parent="1" source="Nv3vTx3vPGKNBrUeAZSQ-12" target="Nv3vTx3vPGKNBrUeAZSQ-14">
          <mxGeometry relative="1" as="geometry">
            <mxPoint x="195" y="660" as="targetPoint" />
          </mxGeometry>
        </mxCell>
        <mxCell id="Nv3vTx3vPGKNBrUeAZSQ-12" value="&lt;font style=&quot;font-size: 16px;&quot;&gt;Nyalakan monitor&lt;/font&gt;" style="whiteSpace=wrap;html=1;strokeWidth=2;" vertex="1" parent="1">
          <mxGeometry x="137.5" y="530" width="120" height="60" as="geometry" />
        </mxCell>
        <mxCell id="Nv3vTx3vPGKNBrUeAZSQ-17" value="" style="edgeStyle=orthogonalEdgeStyle;rounded=0;orthogonalLoop=1;jettySize=auto;html=1;" edge="1" parent="1" source="Nv3vTx3vPGKNBrUeAZSQ-14">
          <mxGeometry relative="1" as="geometry">
            <mxPoint x="197" y="780" as="targetPoint" />
          </mxGeometry>
        </mxCell>
        <mxCell id="Nv3vTx3vPGKNBrUeAZSQ-14" value="Nyalakan komputer" style="whiteSpace=wrap;html=1;strokeWidth=2;fontSize=16;" vertex="1" parent="1">
          <mxGeometry x="137.5" y="660" width="120" height="60" as="geometry" />
        </mxCell>
        <mxCell id="Nv3vTx3vPGKNBrUeAZSQ-16" value="Tunggu proses booting selesai" style="whiteSpace=wrap;html=1;fontSize=16;strokeWidth=2;" vertex="1" parent="1">
          <mxGeometry x="137.5" y="780" width="120" height="60" as="geometry" />
        </mxCell>
        <mxCell id="Nv3vTx3vPGKNBrUeAZSQ-19" value="&lt;font style=&quot;font-size: 16px;&quot;&gt;Selesai&lt;/font&gt;" style="strokeWidth=2;html=1;shape=mxgraph.flowchart.terminator;whiteSpace=wrap;" vertex="1" parent="1">
          <mxGeometry x="142.5" y="910" width="120" height="50" as="geometry" />
        </mxCell>
        <mxCell id="Nv3vTx3vPGKNBrUeAZSQ-20" value="" style="edgeStyle=orthogonalEdgeStyle;rounded=0;orthogonalLoop=1;jettySize=auto;html=1;" edge="1" parent="1">
          <mxGeometry relative="1" as="geometry">
            <mxPoint x="200" y="840" as="sourcePoint" />
            <mxPoint x="200" y="910" as="targetPoint" />
          </mxGeometry>
        </mxCell>
        <mxCell id="Nv3vTx3vPGKNBrUeAZSQ-21" value="" style="endArrow=classic;html=1;rounded=0;exitX=0.5;exitY=1;exitDx=0;exitDy=0;" edge="1" parent="1" source="Nv3vTx3vPGKNBrUeAZSQ-11">
          <mxGeometry width="50" height="50" relative="1" as="geometry">
            <mxPoint x="408" y="245" as="sourcePoint" />
            <mxPoint x="190" y="500" as="targetPoint" />
            <Array as="points">
              <mxPoint x="398" y="500" />
            </Array>
          </mxGeometry>
        </mxCell>
      </root>
    </mxGraphModel>
  </diagram>
</mxfile>
